<?xml version="1.0" standalone="no"?>
<!DOCTYPE svg PUBLIC "-//W3C//DTD SVG 20010904//EN"
 "http://www.w3.org/TR/2001/REC-SVG-20010904/DTD/svg10.dtd">
<svg version="1.0" xmlns="http://www.w3.org/2000/svg"
 width="497.000000pt" height="540.000000pt" viewBox="0 0 497.000000 540.000000"
 preserveAspectRatio="xMidYMid meet">

<g transform="translate(0.000000,540.000000) scale(0.100000,-0.100000)"
fill="#000000" stroke="none">
<path d="M4317 5244 c-1 -1 -24 -5 -52 -8 -68 -9 -227 -64 -355 -121 -99 -44
-360 -174 -360 -178 0 -2 18 -1 39 1 85 8 315 -112 549 -287 151 -113 337
-294 380 -370 l30 -53 7 43 c4 24 9 53 11 64 108 652 62 879 -182 904 -36 4
-66 6 -67 5z"/>
<path d="M3474 4894 c-18 -14 -18 -15 4 -4 12 6 22 13 22 15 0 8 -5 6 -26 -11z"/>
<path d="M3374 4834 c-18 -14 -18 -15 4 -4 12 6 22 13 22 15 0 8 -5 6 -26 -11z"/>
<path d="M3300 4789 c-22 -18 -22 -19 -3 -10 12 6 25 16 28 21 9 15 3 12 -25
-11z"/>
<path d="M3182 4715 c-45 -31 -82 -58 -82 -60 0 -5 145 89 165 106 22 21 -6 5
-83 -46z"/>
<path d="M3015 4599 c-38 -27 -74 -55 -80 -61 -12 -13 123 79 145 98 27 26 5
13 -65 -37z"/>
<path d="M2780 4427 c-157 -118 -255 -197 -245 -197 4 0 39 26 78 58 40 33
125 98 190 146 100 74 128 98 115 96 -2 -1 -64 -47 -138 -103z"/>
<path d="M2483 4189 c-18 -16 -33 -33 -33 -36 0 -4 16 8 35 27 32 31 39 40 33
40 -2 0 -18 -14 -35 -31z"/>
<path d="M2360 4075 c-41 -41 -72 -75 -69 -75 2 0 38 34 79 75 41 41 72 75 69
75 -2 0 -38 -34 -79 -75z"/>
<path d="M2855 4129 c-148 -37 -306 -168 -382 -315 -97 -192 -82 -347 48 -475
97 -96 204 -131 338 -110 340 53 594 425 468 684 -35 71 -118 151 -196 190
-54 26 -76 31 -150 34 -47 1 -104 -2 -126 -8z m261 -127 c48 -24 100 -81 121
-129 15 -37 19 -122 8 -174 -4 -19 -23 -65 -42 -102 -101 -193 -335 -308 -517
-253 -67 20 -110 57 -141 121 -25 50 -27 64 -23 135 4 63 11 92 37 145 62 126
189 233 320 271 67 19 186 12 237 -14z"/>
<path d="M2180 3895 c-41 -41 -72 -75 -69 -75 2 0 38 34 79 75 41 41 72 75 69
75 -2 0 -38 -34 -79 -75z"/>
<path d="M2032 3728 c-104 -125 -209 -261 -286 -373 -38 -55 -76 -106 -84
-112 -9 -7 -11 -13 -5 -13 6 0 42 44 79 98 90 128 168 232 281 369 51 62 91
113 88 113 -2 0 -35 -37 -73 -82z"/>
<path d="M1596 3229 c-22 -5 -42 -12 -45 -15 -10 -9 73 8 84 17 5 5 7 9 5 8
-3 -1 -23 -5 -44 -10z"/>
<path d="M1440 3186 c-256 -89 -425 -218 -635 -488 -116 -149 -380 -548 -362
-548 3 0 24 33 48 73 73 123 232 357 323 474 206 264 380 398 626 479 47 15
89 31 95 36 13 11 10 11 -95 -26z"/>
<path d="M1138 2420 c-142 -24 -349 -130 -666 -342 -89 -60 -122 -75 -94 -43
14 17 63 105 58 105 -8 0 -86 -137 -86 -150 0 -6 12 -31 26 -56 30 -51 17 -55
154 46 124 91 328 212 438 261 80 35 201 73 209 66 2 -2 -17 -59 -42 -126 -25
-67 -45 -127 -45 -133 0 -6 12 -37 27 -70 l26 -59 -22 -54 c-32 -76 -18 -111
97 -243 l64 -74 -25 -56 c-29 -67 -41 -105 -61 -191 -22 -95 -6 -64 20 39 26
102 63 191 111 269 33 52 35 53 71 46 123 -23 404 -214 565 -385 41 -44 80
-93 86 -111 10 -29 8 -33 -42 -87 -28 -30 -46 -52 -39 -48 7 4 48 -8 95 -28
93 -40 183 -65 208 -59 9 3 38 22 64 44 34 28 51 36 63 31 27 -14 109 -14 129
-1 69 42 -88 260 -351 487 -388 335 -894 627 -1037 598 -27 -5 -28 -4 -18 22
6 15 26 68 44 117 18 50 42 114 54 143 l21 52 -28 -1 c-15 -1 -48 -5 -74 -9z"/>
<path d="M3429 2073 c-13 -16 -12 -17 3 -5 15 12 19 8 32 -40 56 -193 58 -412
5 -623 -55 -218 -255 -532 -571 -896 -155 -178 -178 -204 -178 -192 0 5 11 47
25 94 42 137 103 387 121 493 18 109 15 276 -6 334 -18 49 -20 35 -4 -28 37
-145 5 -363 -118 -787 l-41 -142 38 -56 c21 -30 39 -55 41 -55 7 0 134 139
228 249 311 363 495 656 551 876 67 264 41 597 -58 736 -23 32 -45 59 -48 59
-4 0 -13 -8 -20 -17z"/>
<path d="M3344 1978 l-19 -23 23 19 c12 11 22 21 22 23 0 8 -8 2 -26 -19z"/>
<path d="M3249 1873 l-24 -28 28 24 c15 14 27 26 27 28 0 8 -8 1 -31 -24z"/>
<path d="M3159 1773 l-24 -28 28 24 c25 23 32 31 24 31 -2 0 -14 -12 -28 -27z"/>
<path d="M3064 1668 l-19 -23 23 19 c21 18 27 26 19 26 -2 0 -12 -10 -23 -22z"/>
<path d="M2969 1563 l-24 -28 28 24 c25 23 32 31 24 31 -2 0 -14 -12 -28 -27z"/>
<path d="M2874 1458 l-19 -23 23 19 c12 11 22 21 22 23 0 8 -8 2 -26 -19z"/>
<path d="M2795 1369 c-4 -6 -5 -12 -2 -15 2 -3 7 2 10 11 7 17 1 20 -8 4z"/>
<path d="M1181 1208 c0 -9 -4 -25 -7 -35 -5 -17 -5 -17 6 0 6 10 9 25 7 35 -4
15 -5 15 -6 0z"/>
<path d="M1172 1110 c-1 -19 -5 -46 -7 -60 l-6 -25 11 25 c6 13 9 40 7 60 l-4
35 -1 -35z"/>
<path d="M1167 900 c3 -30 7 -57 9 -59 8 -9 2 75 -6 94 -5 12 -6 -1 -3 -35z"/>
<path d="M1181 764 c0 -11 3 -14 6 -6 3 7 2 16 -1 19 -3 4 -6 -2 -5 -13z"/>
<path d="M1180 726 c0 -2 8 -10 18 -17 15 -13 16 -12 3 4 -13 16 -21 21 -21
13z"/>
</g>
</svg>
